# xmcd
#
# Track frame offsets:
#	150
#	11752
#	22185
#	31562
#	45392
#	56457
#	67835
#	79090
#	90332
#	101065
#	111890
#	123132
#	133887
#	145497
#	156672
#	168165
#	180817
#	195187
#
# Disc length: 2759 seconds
#
# Revision: 1
# Processed by: cddbd v1.5PL3 Copyright (c) Steve Scherf et al.
# Submitted via: EasyCDDAExtractor 6.5.0.1
#
DISCID=dd0ac512
DTITLE=Patsy Cline - With Love
DYEAR=1999
DGENRE=Country
TTITLE0=Walkin' After Midnight
TTITLE1=I Love You Honey
TTITLE2=Come On In
TTITLE3=A Church, A Courtroom And Then Goodbye
TTITLE4=Stop The World
TTITLE5=Crazy Dreams
TTITLE6=Hongry For Love
TTITLE7=Just Out Of Reach
TTITLE8=Honky Tonk Merry Go Round
TTITLE9=I Cried All The Way To The Alter
TTITLE10=Cry Not For Me
TTITLE11=I Can See An Angel
TTITLE12=Never No More
TTITLE13=Hidin' Out
TTITLE14=The Heart You Break May Be Your Own
TTITLE15=Fingerprints
TTITLE16=Then You'll Know
TTITLE17=Today, Tomorrow And Forever
EXTD=
EXTT0=
EXTT1=
EXTT2=
EXTT3=
EXTT4=
EXTT5=
EXTT6=
EXTT7=
EXTT8=
EXTT9=
EXTT10=
EXTT11=
EXTT12=
EXTT13=
EXTT14=
EXTT15=
EXTT16=
EXTT17=
PLAYORDER=
